<?xml version="1.0" encoding="UTF-8" standalone="no"?>
<!-- Created with Inkscape (http://www.inkscape.org/) -->

<svg
   xmlns:dc="http://purl.org/dc/elements/1.1/"
   xmlns:cc="http://creativecommons.org/ns#"
   xmlns:rdf="http://www.w3.org/1999/02/22-rdf-syntax-ns#"
   xmlns:svg="http://www.w3.org/2000/svg"
   xmlns="http://www.w3.org/2000/svg"
   xmlns:sodipodi="http://sodipodi.sourceforge.net/DTD/sodipodi-0.dtd"
   xmlns:inkscape="http://www.inkscape.org/namespaces/inkscape"
   width="297mm"
   height="210mm"
   viewBox="0 0 1052.3622 744.09448"
   id="svg2"
   version="1.1"
   inkscape:version="0.91 r13725"
   sodipodi:docname="Rahmen.svg">
  <defs
     id="defs4">
    <marker
       inkscape:stockid="Arrow2Mend"
       orient="auto"
       refY="0.0"
       refX="0.0"
       id="marker5875"
       style="overflow:visible;"
       inkscape:isstock="true">
      <path
         id="path5877"
         style="fill-rule:evenodd;stroke-width:0.625;stroke-linejoin:round;stroke:#000000;stroke-opacity:1;fill:#000000;fill-opacity:1"
         d="M 8.7185878,4.0337352 L -2.2072895,0.016013256 L 8.7185884,-4.0017078 C 6.9730900,-1.6296469 6.9831476,1.6157441 8.7185878,4.0337352 z "
         transform="scale(0.6) rotate(180) translate(0,0)" />
    </marker>
    <marker
       inkscape:stockid="Arrow2Mend"
       orient="auto"
       refY="0.0"
       refX="0.0"
       id="Arrow2Mend"
       style="overflow:visible;"
       inkscape:isstock="true">
      <path
         id="path5574"
         style="fill-rule:evenodd;stroke-width:0.625;stroke-linejoin:round;stroke:#000000;stroke-opacity:1;fill:#000000;fill-opacity:1"
         d="M 8.7185878,4.0337352 L -2.2072895,0.016013256 L 8.7185884,-4.0017078 C 6.9730900,-1.6296469 6.9831476,1.6157441 8.7185878,4.0337352 z "
         transform="scale(0.6) rotate(180) translate(0,0)" />
    </marker>
    <marker
       inkscape:stockid="Arrow2Mstart"
       orient="auto"
       refY="0.0"
       refX="0.0"
       id="Arrow2Mstart"
       style="overflow:visible"
       inkscape:isstock="true">
      <path
         id="path5571"
         style="fill-rule:evenodd;stroke-width:0.625;stroke-linejoin:round;stroke:#000000;stroke-opacity:1;fill:#000000;fill-opacity:1"
         d="M 8.7185878,4.0337352 L -2.2072895,0.016013256 L 8.7185884,-4.0017078 C 6.9730900,-1.6296469 6.9831476,1.6157441 8.7185878,4.0337352 z "
         transform="scale(0.6) translate(0,0)" />
    </marker>
    <marker
       inkscape:stockid="Arrow2Mstart"
       orient="auto"
       refY="0"
       refX="0"
       id="Arrow2Mstart-3"
       style="overflow:visible"
       inkscape:isstock="true">
      <path
         inkscape:connector-curvature="0"
         id="path5571-5"
         style="fill:#000000;fill-opacity:1;fill-rule:evenodd;stroke:#000000;stroke-width:0.625;stroke-linejoin:round;stroke-opacity:1"
         d="M 8.7185878,4.0337352 -2.2072895,0.01601326 8.7185884,-4.0017078 c -1.7454984,2.3720609 -1.7354408,5.6174519 -6e-7,8.035443 z"
         transform="scale(0.6,0.6)" />
    </marker>
    <marker
       inkscape:stockid="Arrow2Mend"
       orient="auto"
       refY="0"
       refX="0"
       id="Arrow2Mend-9"
       style="overflow:visible"
       inkscape:isstock="true">
      <path
         inkscape:connector-curvature="0"
         id="path5574-6"
         style="fill:#000000;fill-opacity:1;fill-rule:evenodd;stroke:#000000;stroke-width:0.625;stroke-linejoin:round;stroke-opacity:1"
         d="M 8.7185878,4.0337352 -2.2072895,0.01601326 8.7185884,-4.0017078 c -1.7454984,2.3720609 -1.7354408,5.6174519 -6e-7,8.035443 z"
         transform="scale(-0.6,-0.6)" />
    </marker>
  </defs>
  <sodipodi:namedview
     id="base"
     pagecolor="#ffffff"
     bordercolor="#666666"
     borderopacity="1.0"
     inkscape:pageopacity="0.0"
     inkscape:pageshadow="2"
     inkscape:zoom="0.8117387"
     inkscape:cx="362.94109"
     inkscape:cy="347.00694"
     inkscape:document-units="mm"
     inkscape:current-layer="layer1"
     showgrid="false"
     units="mm"
     inkscape:window-width="1440"
     inkscape:window-height="856"
     inkscape:window-x="0"
     inkscape:window-y="0"
     inkscape:window-maximized="1" />
  <metadata
     id="metadata7">
    <rdf:RDF>
      <cc:Work
         rdf:about="">
        <dc:format>image/svg+xml</dc:format>
        <dc:type
           rdf:resource="http://purl.org/dc/dcmitype/StillImage" />
        <dc:title></dc:title>
      </cc:Work>
    </rdf:RDF>
  </metadata>
  <g
     inkscape:label="Ebene 1"
     inkscape:groupmode="layer"
     id="layer1"
     transform="translate(0,-308.26771)">
    <path
       style="opacity:1;fill:none;fill-opacity:1;stroke:#000000;stroke-width:1.23561716;stroke-linecap:butt;stroke-linejoin:round;stroke-miterlimit:4;stroke-dasharray:none;stroke-opacity:1"
       d="m 36.842292,892.23257 c -4.44473,0 -8.02148,3.57675 -8.02148,8.02148 l 0,124.79105 c 0,4.4447 3.57675,8.0234 8.02148,8.0234 l 192.113278,0 c 4.44474,0 8.02344,-3.5787 8.02344,-8.0234 l 0,-124.79105 c 0,-4.44473 -3.5787,-8.02148 -8.02344,-8.02148 l -192.113278,0 z m 3.93164,6.83398 a 5.1195498,5.1195498 0 0 1 5.11914,5.11914 5.1195498,5.1195498 0 0 1 -5.11914,5.11914 5.1195498,5.1195498 0 0 1 -5.11914,-5.11914 5.1195498,5.1195498 0 0 1 5.11914,-5.11914 z m 184.251958,0 a 5.1195498,5.1195498 0 0 1 5.11914,5.11914 5.1195498,5.1195498 0 0 1 -5.11914,5.11914 5.1195498,5.1195498 0 0 1 -5.11915,-5.11914 5.1195498,5.1195498 0 0 1 5.11915,-5.11914 z m -168.974608,11.01367 153.697258,0 c 5.19841,0 9.38281,4.18442 9.38281,9.38281 l 0,86.37507 c 0,5.1984 -4.1844,9.3828 -9.38281,9.3828 l -65.06445,0 0,2.8886 c 0,4.2675 -3.43567,7.7032 -7.70313,7.7032 l -75.484368,0 c -4.26745,0 -7.70313,-3.4357 -7.70313,-7.7032 l 0,-3.1699 c -4.09905,-1.0069 -7.125,-4.6833 -7.125,-9.1015 l 0,-86.37507 c 0,-5.19839 4.18441,-9.38281 9.38282,-9.38281 z m -15.27735,105.91408 a 5.1195498,5.1195498 0 0 1 5.11914,5.1211 5.1195498,5.1195498 0 0 1 -5.11914,5.1191 5.1195498,5.1195498 0 0 1 -5.11914,-5.1191 5.1195498,5.1195498 0 0 1 5.11914,-5.1211 z m 184.251958,0 a 5.1195498,5.1195498 0 0 1 5.11914,5.1211 5.1195498,5.1195498 0 0 1 -5.11914,5.1191 5.1195498,5.1195498 0 0 1 -5.11915,-5.1191 5.1195498,5.1195498 0 0 1 5.11915,-5.1211 z"
       id="rect7521"
       inkscape:connector-curvature="0" />
    <path
       style="opacity:1;fill:none;fill-opacity:1;stroke:#000000;stroke-width:1.23561716;stroke-linecap:butt;stroke-linejoin:round;stroke-miterlimit:4;stroke-dasharray:none;stroke-opacity:1"
       d="m 36.842292,733.29281 c -4.44473,0 -8.02148,3.57674 -8.02148,8.02148 l 0,124.79103 c 0,4.4447 3.57675,8.0234 8.02148,8.0234 l 192.113278,0 c 4.44474,0 8.02344,-3.5787 8.02344,-8.0234 l 0,-124.79103 c 0,-4.44474 -3.5787,-8.02148 -8.02344,-8.02148 l -192.113278,0 z m 3.93164,6.83398 a 5.1195498,5.1195498 0 0 1 5.11914,5.11914 5.1195498,5.1195498 0 0 1 -5.11914,5.11914 5.1195498,5.1195498 0 0 1 -5.11914,-5.11914 5.1195498,5.1195498 0 0 1 5.11914,-5.11914 z m 184.251958,0 a 5.1195498,5.1195498 0 0 1 5.11914,5.11914 5.1195498,5.1195498 0 0 1 -5.11914,5.11914 5.1195498,5.1195498 0 0 1 -5.11915,-5.11914 5.1195498,5.1195498 0 0 1 5.11915,-5.11914 z m -168.974608,11.01367 153.697258,0 c 5.19841,0 9.38281,4.18442 9.38281,9.38281 l 0,86.37505 c 0,5.1984 -4.1844,9.38279 -9.38281,9.38279 l -65.06445,0 0,2.8886 c 0,4.26751 -3.43567,7.70321 -7.70313,7.70321 l -75.484368,0 c -4.26745,0 -7.70313,-3.4357 -7.70313,-7.70321 l 0,-3.1699 c -4.09905,-1.00689 -7.125,-4.6833 -7.125,-9.10149 l 0,-86.37505 c 0,-5.19839 4.18441,-9.38281 9.38282,-9.38281 z m -15.27735,105.91406 a 5.1195498,5.1195498 0 0 1 5.11914,5.12109 5.1195498,5.1195498 0 0 1 -5.11914,5.1191 5.1195498,5.1195498 0 0 1 -5.11914,-5.1191 5.1195498,5.1195498 0 0 1 5.11914,-5.12109 z m 184.251958,0 a 5.1195498,5.1195498 0 0 1 5.11914,5.12109 5.1195498,5.1195498 0 0 1 -5.11914,5.1191 5.1195498,5.1195498 0 0 1 -5.11915,-5.1191 5.1195498,5.1195498 0 0 1 5.11915,-5.12109 z"
       id="rect7521-0"
       inkscape:connector-curvature="0" />
    <path
       style="opacity:1;fill:none;fill-opacity:1;stroke:#000000;stroke-width:1.23561716;stroke-linecap:butt;stroke-linejoin:round;stroke-miterlimit:4;stroke-dasharray:none;stroke-opacity:1"
       d="m 36.842292,575.13131 c -4.44473,0 -8.02148,3.57675 -8.02148,8.02148 l 0,124.79103 c 0,4.4447 3.57675,8.0234 8.02148,8.0234 l 192.113278,0 c 4.44474,0 8.02344,-3.5787 8.02344,-8.0234 l 0,-124.79103 c 0,-4.44473 -3.5787,-8.02148 -8.02344,-8.02148 l -192.113278,0 z m 3.93164,6.83398 a 5.1195498,5.1195498 0 0 1 5.11914,5.11914 5.1195498,5.1195498 0 0 1 -5.11914,5.11914 5.1195498,5.1195498 0 0 1 -5.11914,-5.11914 5.1195498,5.1195498 0 0 1 5.11914,-5.11914 z m 184.251958,0 a 5.1195498,5.1195498 0 0 1 5.11914,5.11914 5.1195498,5.1195498 0 0 1 -5.11914,5.11914 5.1195498,5.1195498 0 0 1 -5.11915,-5.11914 5.1195498,5.1195498 0 0 1 5.11915,-5.11914 z m -168.974608,11.01367 153.697258,0 c 5.19841,0 9.38281,4.18442 9.38281,9.38281 l 0,86.37505 c 0,5.1984 -4.1844,9.3828 -9.38281,9.3828 l -65.06445,0 0,2.8886 c 0,4.2675 -3.43567,7.7032 -7.70313,7.7032 l -75.484371,0 c -4.267447,0 -7.703127,-3.4357 -7.703127,-7.7032 l 0,-3.1699 c -4.09905,-1.0069 -7.125,-4.6833 -7.125,-9.1015 l 0,-86.37505 c 0,-5.19839 4.18441,-9.38281 9.38282,-9.38281 z m -15.27735,105.91406 a 5.1195498,5.1195498 0 0 1 5.11914,5.1211 5.1195498,5.1195498 0 0 1 -5.11914,5.1191 5.1195498,5.1195498 0 0 1 -5.11914,-5.1191 5.1195498,5.1195498 0 0 1 5.11914,-5.1211 z m 184.251958,0 a 5.1195498,5.1195498 0 0 1 5.11914,5.1211 5.1195498,5.1195498 0 0 1 -5.11914,5.1191 5.1195498,5.1195498 0 0 1 -5.11915,-5.1191 5.1195498,5.1195498 0 0 1 5.11915,-5.1211 z"
       id="rect7521-08"
       inkscape:connector-curvature="0" />
    <path
       style="opacity:1;fill:none;fill-opacity:1;stroke:#000000;stroke-width:1.23561716;stroke-linecap:butt;stroke-linejoin:round;stroke-miterlimit:4;stroke-dasharray:none;stroke-opacity:1"
       d="m 36.842292,413.90444 c -4.44473,0 -8.02148,3.57675 -8.02148,8.02148 l 0,124.79103 c 0,4.4447 3.57675,8.02341 8.02148,8.02341 l 192.113278,0 c 4.44474,0 8.02344,-3.57871 8.02344,-8.02341 l 0,-124.79103 c 0,-4.44472 -3.5787,-8.02148 -8.02344,-8.02148 l -192.113278,0 z m 3.93164,6.83398 a 5.1195498,5.1195498 0 0 1 5.11914,5.11914 5.1195498,5.1195498 0 0 1 -5.11914,5.11914 5.1195498,5.1195498 0 0 1 -5.11914,-5.11914 5.1195498,5.1195498 0 0 1 5.11914,-5.11914 z m 184.251958,0 a 5.1195498,5.1195498 0 0 1 5.11914,5.11914 5.1195498,5.1195498 0 0 1 -5.11914,5.11914 5.1195498,5.1195498 0 0 1 -5.11915,-5.11914 5.1195498,5.1195498 0 0 1 5.11915,-5.11914 z m -168.974608,11.01367 153.697258,0 c 5.19841,0 9.38281,4.18442 9.38281,9.38281 l 0,86.37505 c 0,5.1984 -4.1844,9.3828 -9.38281,9.3828 l -65.06445,0 0,2.8886 c 0,4.2675 -3.43567,7.7032 -7.70313,7.7032 l -75.484368,0 c -4.26745,0 -7.70313,-3.4357 -7.70313,-7.7032 l 0,-3.1699 c -4.09905,-1.0069 -7.125,-4.6833 -7.125,-9.1015 l 0,-86.37505 c 0,-5.19839 4.18441,-9.38281 9.38282,-9.38281 z m -15.27735,105.91406 a 5.1195498,5.1195498 0 0 1 5.11914,5.1211 5.1195498,5.1195498 0 0 1 -5.11914,5.1191 5.1195498,5.1195498 0 0 1 -5.11914,-5.1191 5.1195498,5.1195498 0 0 1 5.11914,-5.1211 z m 184.251958,0 a 5.1195498,5.1195498 0 0 1 5.11914,5.1211 5.1195498,5.1195498 0 0 1 -5.11914,5.1191 5.1195498,5.1195498 0 0 1 -5.11915,-5.1191 5.1195498,5.1195498 0 0 1 5.11915,-5.1211 z"
       id="rect7521-7"
       inkscape:connector-curvature="0" />
    <path
       style="opacity:1;fill:none;fill-opacity:1;stroke:#000000;stroke-width:1.23661423;stroke-linecap:butt;stroke-linejoin:round;stroke-miterlimit:4;stroke-dasharray:none;stroke-opacity:1"
       d="m 276.91992,892.23255 c -4.44473,0 -8.02148,3.57675 -8.02148,8.02148 l 0,36.23828 17.84765,0 0,-17.02929 c 0,-5.19839 4.18441,-9.38282 9.38282,-9.38282 l 153.69726,0 c 5.19841,0 9.38281,4.18443 9.38281,9.38282 l 0,86.37498 c 0,5.1984 -4.1844,9.3828 -9.38281,9.3828 l -65.06445,0 0,2.8887 c 0,4.2675 -3.43567,7.7031 -7.70313,7.7031 l -75.48437,0 c -4.26745,0 -7.70313,-3.4356 -7.70313,-7.7031 l 0,-3.1699 c -4.09905,-1.0069 -7.125,-4.6834 -7.125,-9.1016 l 0,-17.03123 -17.84765,0 0,36.23833 c 0,4.4447 3.57675,8.0234 8.02148,8.0234 l 192.11328,0 c 4.44474,0 8.02344,-3.5787 8.02344,-8.0234 l 0,-124.79107 c 0,-4.44473 -3.5787,-8.02148 -8.02344,-8.02148 l -192.11328,0 z m 3.93164,6.83398 a 5.1195498,5.1195498 0 0 1 5.11914,5.11914 5.1195498,5.1195498 0 0 1 -5.11914,5.11914 5.1195498,5.1195498 0 0 1 -5.11914,-5.11914 5.1195498,5.1195498 0 0 1 5.11914,-5.11914 z m 184.25196,0 a 5.1195498,5.1195498 0 0 1 5.11914,5.11914 5.1195498,5.1195498 0 0 1 -5.11914,5.11914 5.1195498,5.1195498 0 0 1 -5.11914,-5.11914 5.1195498,5.1195498 0 0 1 5.11914,-5.11914 z M 280.85156,1015.9943 a 5.1195498,5.1195498 0 0 1 5.11914,5.1211 5.1195498,5.1195498 0 0 1 -5.11914,5.1191 5.1195498,5.1195498 0 0 1 -5.11914,-5.1191 5.1195498,5.1195498 0 0 1 5.11914,-5.1211 z m 184.25196,0 a 5.1195498,5.1195498 0 0 1 5.11914,5.1211 5.1195498,5.1195498 0 0 1 -5.11914,5.1191 5.1195498,5.1195498 0 0 1 -5.11914,-5.1191 5.1195498,5.1195498 0 0 1 5.11914,-5.1211 z"
       id="rect7521-04"
       inkscape:connector-curvature="0" />
    <path
       inkscape:connector-curvature="0"
       style="opacity:1;fill:none;fill-opacity:1;stroke:#000000;stroke-width:1.23561716;stroke-linecap:butt;stroke-linejoin:round;stroke-miterlimit:4;stroke-dasharray:none;stroke-opacity:1"
       d="m 276.91992,733.29279 c -4.44473,0 -8.02148,3.57675 -8.02148,8.02148 l 0,36.23828 17.84765,0 0,-17.02929 c 0,-5.19839 4.18441,-9.38282 9.38282,-9.38282 l 153.69726,0 c 5.19841,0 9.38281,4.18443 9.38281,9.38282 l 0,86.375 c 0,5.1984 -4.1844,9.38281 -9.38281,9.38281 l -65.06445,0 0,2.88867 c 0,4.2675 -3.43567,7.70313 -7.70313,7.70313 l -75.48437,0 c -4.26745,0 -7.70313,-3.43563 -7.70313,-7.70313 l 0,-3.16992 c -4.09905,-1.0069 -7.125,-4.68336 -7.125,-9.10156 l 0,-17.03125 -17.84765,0 0,36.23828 c 0,4.4447 3.57675,8.02344 8.02148,8.02344 l 192.11328,0 c 4.44474,0 8.02344,-3.57874 8.02344,-8.02344 l 0,-124.79102 c 0,-4.44473 -3.5787,-8.02148 -8.02344,-8.02148 l -192.11328,0 z m 3.93164,6.83398 a 5.1195498,5.1195498 0 0 1 5.11914,5.11914 5.1195498,5.1195498 0 0 1 -5.11914,5.11914 5.1195498,5.1195498 0 0 1 -5.11914,-5.11914 5.1195498,5.1195498 0 0 1 5.11914,-5.11914 z m 184.25196,0 a 5.1195498,5.1195498 0 0 1 5.11914,5.11914 5.1195498,5.1195498 0 0 1 -5.11914,5.11914 5.1195498,5.1195498 0 0 1 -5.11914,-5.11914 5.1195498,5.1195498 0 0 1 5.11914,-5.11914 z M 280.85156,857.05451 a 5.1195498,5.1195498 0 0 1 5.11914,5.12109 5.1195498,5.1195498 0 0 1 -5.11914,5.11914 5.1195498,5.1195498 0 0 1 -5.11914,-5.11914 5.1195498,5.1195498 0 0 1 5.11914,-5.12109 z m 184.25196,0 a 5.1195498,5.1195498 0 0 1 5.11914,5.12109 5.1195498,5.1195498 0 0 1 -5.11914,5.11914 5.1195498,5.1195498 0 0 1 -5.11914,-5.11914 5.1195498,5.1195498 0 0 1 5.11914,-5.12109 z"
       id="rect7521-04-2" />
    <path
       style="opacity:1;fill:none;fill-opacity:1;stroke:#000000;stroke-width:1.23561716;stroke-linecap:butt;stroke-linejoin:round;stroke-miterlimit:4;stroke-dasharray:none;stroke-opacity:1"
       d="m 276.91993,413.90443 c -4.44473,0 -8.0215,3.57675 -8.0215,8.02148 l 0,36.23828 17.84767,0 0,-5.23437 21.29296,0 0,-21.17773 132.72266,0 0,20.63281 18.44727,0 0,62.60547 -18.43945,0 0,21.90234 -56.00782,0 0,2.88867 c 0,4.2675 -3.43567,7.70313 -7.70312,7.70313 l -75.48438,0 c -4.26745,0 -7.70312,-3.43563 -7.70312,-7.70313 l 0,-2.73242 0.14258,0 0,-6.13867 9.58788,0 0,-15.63477 -16.85546,0 0,-4.79687 -17.84767,0 0,36.23828 c 0,4.4447 3.57677,8.02344 8.0215,8.02344 l 192.11327,0 c 4.44475,0 8.0234,-3.57874 8.02344,-8.02344 l 0,-124.79102 c 0,-4.44473 -3.57869,-8.02148 -8.02344,-8.02148 l -192.11327,0 z m 3.93163,6.83398 a 5.1195498,5.1195498 0 0 1 5.11914,5.11914 5.1195498,5.1195498 0 0 1 -5.11914,5.11914 5.1195498,5.1195498 0 0 1 -5.11913,-5.11914 5.1195498,5.1195498 0 0 1 5.11913,-5.11914 z m 184.25196,0 a 5.1195498,5.1195498 0 0 1 5.11914,5.11914 5.1195498,5.1195498 0 0 1 -5.11914,5.11914 5.1195498,5.1195498 0 0 1 -5.11915,-5.11914 5.1195498,5.1195498 0 0 1 5.11915,-5.11914 z M 280.85156,537.66615 a 5.1195498,5.1195498 0 0 1 5.11914,5.12109 5.1195498,5.1195498 0 0 1 -5.11914,5.11914 5.1195498,5.1195498 0 0 1 -5.11913,-5.11914 5.1195498,5.1195498 0 0 1 5.11913,-5.12109 z m 184.25196,0 a 5.1195498,5.1195498 0 0 1 5.11914,5.12109 5.1195498,5.1195498 0 0 1 -5.11914,5.11914 5.1195498,5.1195498 0 0 1 -5.11915,-5.11914 5.1195498,5.1195498 0 0 1 5.11915,-5.12109 z"
       id="rect7521-04-7"
       inkscape:connector-curvature="0" />
    <path
       inkscape:connector-curvature="0"
       style="opacity:1;fill:none;fill-opacity:1;stroke:#000000;stroke-width:1.23561716;stroke-linecap:butt;stroke-linejoin:round;stroke-miterlimit:4;stroke-dasharray:none;stroke-opacity:1"
       d="m 276.91992,575.13129 c -4.44473,0 -8.02149,3.57675 -8.02149,8.02148 l 0,36.23828 17.84766,0 0,-5.23437 21.29297,0 0,-21.17773 132.72265,0 0,20.63281 18.44727,0 0,62.60547 -18.43945,0 0,21.90234 -56.00782,0 0,2.88867 c 0,4.2675 -3.43566,7.70313 -7.70312,7.70313 l -75.48438,0 c -4.26745,0 -7.70312,-3.43563 -7.70312,-7.70313 l 0,-2.73242 0.14258,0 0,-6.13867 9.58789,0 0,-15.63477 -16.85547,0 0,-4.79687 -17.84766,0 0,36.23828 c 0,4.4447 3.57676,8.02344 8.02149,8.02344 l 192.11328,0 c 4.44474,0 8.0234,-3.57874 8.02344,-8.02344 l 0,-124.79102 c 0,-4.44473 -3.5787,-8.02148 -8.02344,-8.02148 l -192.11328,0 z m 3.93164,6.83398 a 5.1195498,5.1195498 0 0 1 5.11914,5.11914 5.1195498,5.1195498 0 0 1 -5.11914,5.11914 5.1195498,5.1195498 0 0 1 -5.11914,-5.11914 5.1195498,5.1195498 0 0 1 5.11914,-5.11914 z m 184.25195,0 a 5.1195498,5.1195498 0 0 1 5.11914,5.11914 5.1195498,5.1195498 0 0 1 -5.11914,5.11914 5.1195498,5.1195498 0 0 1 -5.11914,-5.11914 5.1195498,5.1195498 0 0 1 5.11914,-5.11914 z M 280.85156,698.89301 a 5.1195498,5.1195498 0 0 1 5.11914,5.12109 5.1195498,5.1195498 0 0 1 -5.11914,5.11914 5.1195498,5.1195498 0 0 1 -5.11914,-5.11914 5.1195498,5.1195498 0 0 1 5.11914,-5.12109 z m 184.25195,0 a 5.1195498,5.1195498 0 0 1 5.11914,5.12109 5.1195498,5.1195498 0 0 1 -5.11914,5.11914 5.1195498,5.1195498 0 0 1 -5.11914,-5.11914 5.1195498,5.1195498 0 0 1 5.11914,-5.12109 z"
       id="rect7521-04-7-0" />
    <path
       id="rect8657-5-5-7-8-4-11"
       style="opacity:1;fill:none;fill-opacity:1;stroke:#000000;stroke-width:1.23661417;stroke-linecap:butt;stroke-linejoin:round;stroke-miterlimit:4;stroke-dasharray:none;stroke-opacity:1"
       d="m 685.85034,923.29266 1.20984,0 c 0.94559,0 1.70684,0.76126 1.70684,1.70685 l 0,75.30199 c 0,0.9456 -0.76125,1.7068 -1.70684,1.7068 l -1.20984,0 c -0.94559,0 -1.70685,-0.7612 -1.70685,-1.7068 l 0,-75.30199 c 0,-0.94559 0.76126,-1.70685 1.70685,-1.70685 z m -13.56837,-13.00683 c 1.25808,0 2.27091,1.01283 2.27091,2.27092 l 0,100.18755 c 0,1.258 -1.01283,2.2709 -2.27091,2.2709 -1.25809,0 -2.27092,-1.0129 -2.27092,-2.2709 l 0,-100.18755 c 0,-1.25809 1.01283,-2.27092 2.27092,-2.27092 z m -14.17322,0 c 1.25809,0 2.27092,1.01283 2.27092,2.27092 l 0,100.18755 c 0,1.258 -1.01283,2.2709 -2.27092,2.2709 -1.25809,0 -2.27092,-1.0129 -2.27092,-2.2709 l 0,-100.18755 c 0,-1.25809 1.01283,-2.27092 2.27092,-2.27092 z m -14.17322,0 c 1.25809,0 2.27092,1.01283 2.27092,2.27092 l 0,100.18755 c 0,1.258 -1.01283,2.2709 -2.27092,2.2709 -1.25809,0 -2.27092,-1.0129 -2.27092,-2.2709 l 0,-100.18755 c 0,-1.25809 1.01283,-2.27092 2.27092,-2.27092 z m -14.17322,0 c 1.25809,0 2.27092,1.01283 2.27092,2.27092 l 0,100.18755 c 0,1.258 -1.01283,2.2709 -2.27092,2.2709 -1.25809,0 -2.27092,-1.0129 -2.27092,-2.2709 l 0,-100.18755 c 0,-1.25809 1.01283,-2.27092 2.27092,-2.27092 z m -14.17322,0 c 1.25809,0 2.27092,1.01283 2.27092,2.27092 l 0,100.18755 c 0,1.258 -1.01283,2.2709 -2.27092,2.2709 -1.25808,0 -2.27091,-1.0129 -2.27091,-2.2709 l 0,-100.18755 c 0,-1.25809 1.01283,-2.27092 2.27091,-2.27092 z m -14.17327,0 c 1.25808,0 2.27091,1.01283 2.27091,2.27092 l 0,100.18755 c 0,1.258 -1.01283,2.2709 -2.27091,2.2709 -1.25809,0 -2.27092,-1.0129 -2.27092,-2.2709 l 0,-100.18755 c 0,-1.25809 1.01283,-2.27092 2.27092,-2.27092 z m -14.17322,0 c 1.25809,0 2.27092,1.01283 2.27092,2.27092 l 0,100.18755 c 0,1.258 -1.01283,2.2709 -2.27092,2.2709 -1.25809,0 -2.27092,-1.0129 -2.27092,-2.2709 l 0,-100.18755 c 0,-1.25809 1.01283,-2.27092 2.27092,-2.27092 z m -14.17322,0 c 1.25809,0 2.27092,1.01283 2.27092,2.27092 l 0,100.18755 c 0,1.258 -1.01283,2.2709 -2.27092,2.2709 -1.25809,0 -2.27092,-1.0129 -2.27092,-2.2709 l 0,-100.18755 c 0,-1.25809 1.01283,-2.27092 2.27092,-2.27092 z m -14.17322,0 c 1.25809,0 2.27092,1.01283 2.27092,2.27092 l 0,100.18755 c 0,1.258 -1.01283,2.2709 -2.27092,2.2709 -1.25809,0 -2.27092,-1.0129 -2.27092,-2.2709 l 0,-100.18755 c 0,-1.25809 1.01283,-2.27092 2.27092,-2.27092 z m -14.17322,0 c 1.25809,0 2.27092,1.01283 2.27092,2.27092 l 0,100.18755 c 0,1.258 -1.01283,2.2709 -2.27092,2.2709 -1.25808,0 -2.27091,-1.0129 -2.27091,-2.2709 l 0,-100.18755 c 0,-1.25809 1.01283,-2.27092 2.27091,-2.27092 z m -37.89872,-18.05328 c -4.44473,0 -8.02149,3.57676 -8.02149,8.02149 l 0,124.79106 c 0,4.4447 3.57676,8.0234 8.02149,8.0234 l 192.11328,0 c 4.44474,0 8.02344,-3.5787 8.02344,-8.0234 l 0,-124.79106 c 0,-4.44473 -3.5787,-8.02149 -8.02344,-8.02149 l -192.11328,0 z m 3.93164,6.83399 a 5.1195498,5.1195498 0 0 1 5.11914,5.11914 5.1195498,5.1195498 0 0 1 -5.11914,5.11914 5.1195498,5.1195498 0 0 1 -5.11914,-5.11914 5.1195498,5.1195498 0 0 1 5.11914,-5.11914 z m 184.25195,0 a 5.1195498,5.1195498 0 0 1 5.11914,5.11914 5.1195498,5.1195498 0 0 1 -5.11914,5.11914 5.1195498,5.1195498 0 0 1 -5.11914,-5.11914 5.1195498,5.1195498 0 0 1 5.11914,-5.11914 z m -167.05469,38.51367 a 3.168144,3.1681437 0 0 1 3.16797,3.16797 3.168144,3.1681437 0 0 1 -3.16797,3.16797 3.168144,3.1681437 0 0 1 -3.16796,-3.16797 3.168144,3.1681437 0 0 1 3.16796,-3.16797 z m 0,44.29102 a 3.168144,3.1681437 0 0 1 3.16797,3.16796 3.168144,3.1681437 0 0 1 -3.16797,3.16797 3.168144,3.1681437 0 0 1 -3.16796,-3.16797 3.168144,3.1681437 0 0 1 3.16796,-3.16796 z m -17.19726,34.12307 a 5.1195498,5.1195498 0 0 1 5.11914,5.1211 5.1195498,5.1195498 0 0 1 -5.11914,5.1191 5.1195498,5.1195498 0 0 1 -5.11914,-5.1191 5.1195498,5.1195498 0 0 1 5.11914,-5.1211 z m 184.25195,0 a 5.1195498,5.1195498 0 0 1 5.11914,5.1211 5.1195498,5.1195498 0 0 1 -5.11914,5.1191 5.1195498,5.1195498 0 0 1 -5.11914,-5.1191 5.1195498,5.1195498 0 0 1 5.11914,-5.1211 z" />
  </g>
</svg>
