<?xml version="1.0" encoding="UTF-8" standalone="no"?>
<!-- Created with Inkscape (http://www.inkscape.org/) -->

<svg
   xmlns:svg="http://www.w3.org/2000/svg"
   xmlns="http://www.w3.org/2000/svg"
   xmlns:sodipodi="http://sodipodi.sourceforge.net/DTD/sodipodi-0.dtd"
   xmlns:inkscape="http://www.inkscape.org/namespaces/inkscape"
   width="297mm"
   height="210mm"
   viewBox="0 0 1052.3622 744.09448"
   id="svg2"
   version="1.1"
   inkscape:version="0.91 r13725"
   sodipodi:docname="Rueckseite.svg">
  <defs
     id="defs4">
    <marker
       inkscape:stockid="Arrow2Mend"
       orient="auto"
       refY="0.0"
       refX="0.0"
       id="marker5875"
       style="overflow:visible;"
       inkscape:isstock="true">
      <path
         id="path5877"
         style="fill-rule:evenodd;stroke-width:0.625;stroke-linejoin:round;stroke:#000000;stroke-opacity:1;fill:#000000;fill-opacity:1"
         d="M 8.7185878,4.0337352 L -2.2072895,0.016013256 L 8.7185884,-4.0017078 C 6.9730900,-1.6296469 6.9831476,1.6157441 8.7185878,4.0337352 z "
         transform="scale(0.6) rotate(180) translate(0,0)" />
    </marker>
    <marker
       inkscape:stockid="Arrow2Mend"
       orient="auto"
       refY="0.0"
       refX="0.0"
       id="Arrow2Mend"
       style="overflow:visible;"
       inkscape:isstock="true">
      <path
         id="path5574"
         style="fill-rule:evenodd;stroke-width:0.625;stroke-linejoin:round;stroke:#000000;stroke-opacity:1;fill:#000000;fill-opacity:1"
         d="M 8.7185878,4.0337352 L -2.2072895,0.016013256 L 8.7185884,-4.0017078 C 6.9730900,-1.6296469 6.9831476,1.6157441 8.7185878,4.0337352 z "
         transform="scale(0.6) rotate(180) translate(0,0)" />
    </marker>
    <marker
       inkscape:stockid="Arrow2Mstart"
       orient="auto"
       refY="0.0"
       refX="0.0"
       id="Arrow2Mstart"
       style="overflow:visible"
       inkscape:isstock="true">
      <path
         id="path5571"
         style="fill-rule:evenodd;stroke-width:0.625;stroke-linejoin:round;stroke:#000000;stroke-opacity:1;fill:#000000;fill-opacity:1"
         d="M 8.7185878,4.0337352 L -2.2072895,0.016013256 L 8.7185884,-4.0017078 C 6.9730900,-1.6296469 6.9831476,1.6157441 8.7185878,4.0337352 z "
         transform="scale(0.6) translate(0,0)" />
    </marker>
    <marker
       inkscape:stockid="Arrow2Mstart"
       orient="auto"
       refY="0"
       refX="0"
       id="Arrow2Mstart-3"
       style="overflow:visible"
       inkscape:isstock="true">
      <path
         inkscape:connector-curvature="0"
         id="path5571-5"
         style="fill:#000000;fill-opacity:1;fill-rule:evenodd;stroke:#000000;stroke-width:0.625;stroke-linejoin:round;stroke-opacity:1"
         d="M 8.7185878,4.0337352 -2.2072895,0.01601326 8.7185884,-4.0017078 c -1.7454984,2.3720609 -1.7354408,5.6174519 -6e-7,8.035443 z"
         transform="scale(0.6,0.6)" />
    </marker>
    <marker
       inkscape:stockid="Arrow2Mend"
       orient="auto"
       refY="0"
       refX="0"
       id="Arrow2Mend-9"
       style="overflow:visible"
       inkscape:isstock="true">
      <path
         inkscape:connector-curvature="0"
         id="path5574-6"
         style="fill:#000000;fill-opacity:1;fill-rule:evenodd;stroke:#000000;stroke-width:0.625;stroke-linejoin:round;stroke-opacity:1"
         d="M 8.7185878,4.0337352 -2.2072895,0.01601326 8.7185884,-4.0017078 c -1.7454984,2.3720609 -1.7354408,5.6174519 -6e-7,8.035443 z"
         transform="scale(-0.6,-0.6)" />
    </marker>
  </defs>
  <sodipodi:namedview
     id="base"
     pagecolor="#ffffff"
     bordercolor="#666666"
     borderopacity="1.0"
     inkscape:pageopacity="0.0"
     inkscape:pageshadow="2"
     inkscape:zoom="0.57275649"
     inkscape:cx="421.82696"
     inkscape:cy="423.50122"
     inkscape:document-units="mm"
     inkscape:current-layer="svg2"
     showgrid="false"
     units="mm"
     inkscape:window-width="1440"
     inkscape:window-height="856"
     inkscape:window-x="0"
     inkscape:window-y="0"
     inkscape:window-maximized="1" />
  <path
     inkscape:connector-curvature="0"
     d="m 241.53465,346.14395 5.90707,0 0,5.90707 -5.90707,0 z m 0,-38.97641 5.90707,0 0,5.90707 -5.90707,0 z m 0,74.40949 5.90707,0 0,5.90706 -5.90707,0 z m 0,-109.84253 5.90707,0 0,5.90706 -5.90707,0 z m 559.84252,74.40945 5.90707,0 0,5.90707 -5.90707,0 z m 0,-38.97641 5.90707,0 0,5.90707 -5.90707,0 z m 0,74.40949 5.90707,0 0,5.90706 -5.90707,0 z m 0,-109.84253 5.90707,0 0,5.90706 -5.90707,0 z M 154.4707,71.423828 c -10.67409,0 -19.26754,8.593488 -19.26758,19.267578 l 0,562.712894 c 0,10.67409 8.59349,19.26752 19.26758,19.26758 l 739.87696,0 c 10.67409,0 19.26757,-8.59349 19.26757,-19.26758 l 0,-562.712894 c 0,-10.67409 -8.59348,-19.267578 -19.26757,-19.267578 l -739.87696,0 z m -0.33593,13.810547 a 5.1195498,5.1195498 0 0 1 5.11914,5.119141 5.1195498,5.1195498 0 0 1 -5.11914,5.121093 5.1195498,5.1195498 0 0 1 -5.1211,-5.121093 5.1195498,5.1195498 0 0 1 5.1211,-5.119141 z m 740.55078,0 a 5.1195498,5.1195498 0 0 1 5.11914,5.119141 5.1195498,5.1195498 0 0 1 -5.11914,5.121093 5.1195498,5.1195498 0 0 1 -5.11914,-5.121093 5.1195498,5.1195498 0 0 1 5.11914,-5.119141 z M 465.94531,464.36914 a 5.1195498,5.1195498 0 0 1 5.11914,5.11914 5.1195498,5.1195498 0 0 1 -5.11914,5.11914 5.1195498,5.1195498 0 0 1 -5.11914,-5.11914 5.1195498,5.1195498 0 0 1 5.11914,-5.11914 z m 184.25196,0 a 5.1195498,5.1195498 0 0 1 5.11914,5.11914 5.1195498,5.1195498 0 0 1 -5.11914,5.11914 5.1195498,5.1195498 0 0 1 -5.11915,-5.11914 5.1195498,5.1195498 0 0 1 5.11915,-5.11914 z m -162.99219,112.41992 74.4082,0 c 4.69298,0 8.47266,3.77772 8.47266,8.47071 0,4.69298 -3.77968,8.47265 -8.47266,8.47265 l -74.4082,0 c -4.69298,0 -8.47073,-3.77967 -8.4707,-8.47265 0,-4.69299 3.77772,-8.47071 8.4707,-8.47071 z m -21.25977,4.50782 a 5.1195498,5.1195498 0 0 1 5.11914,5.12109 5.1195498,5.1195498 0 0 1 -5.11914,5.11914 5.1195498,5.1195498 0 0 1 -5.11914,-5.11914 5.1195498,5.1195498 0 0 1 5.11914,-5.12109 z m 184.25196,0 a 5.1195498,5.1195498 0 0 1 5.11914,5.12109 5.1195498,5.1195498 0 0 1 -5.11914,5.11914 5.1195498,5.1195498 0 0 1 -5.11915,-5.11914 5.1195498,5.1195498 0 0 1 5.11915,-5.12109 z m -496.0625,67.32421 a 5.1195498,5.1195498 0 0 1 5.11914,5.11914 5.1195498,5.1195498 0 0 1 -5.11914,5.11915 5.1195498,5.1195498 0 0 1 -5.1211,-5.11915 5.1195498,5.1195498 0 0 1 5.1211,-5.11914 z m 740.55078,0 a 5.1195498,5.1195498 0 0 1 0.50976,0.0254 5.1195498,5.1195498 0 0 1 0.002,0 5.1195498,5.1195498 0 0 1 1,0.20313 5.1195498,5.1195498 0 0 1 0.002,0 5.1195498,5.1195498 0 0 1 0.47851,0.17578 5.1195498,5.1195498 0 0 1 0.002,0 5.1195498,5.1195498 0 0 1 0.45898,0.22266 5.1195498,5.1195498 0 0 1 0.002,0 5.1195498,5.1195498 0 0 1 0.8418,0.57617 5.1195498,5.1195498 0 0 1 0.002,0.002 5.1195498,5.1195498 0 0 1 0.71093,0.73242 5.1195498,5.1195498 0 0 1 0.55274,0.85938 5.1195498,5.1195498 0 0 1 0.20898,0.4668 5.1195498,5.1195498 0 0 1 0.041,0.12109 5.1195498,5.1195498 0 0 1 0.21093,0.77344 5.1195498,5.1195498 0 0 1 0.0215,0.0898 5.1195498,5.1195498 0 0 1 0,0.002 5.1195498,5.1195498 0 0 1 0.0606,0.50782 5.1195498,5.1195498 0 0 1 0.0137,0.36132 5.1195498,5.1195498 0 0 1 -0.89453,2.89063 5.1195498,5.1195498 0 0 1 -0.65821,0.78125 5.1195498,5.1195498 0 0 1 -1.24414,0.89062 5.1195498,5.1195498 0 0 1 -0.46875,0.20899 5.1195498,5.1195498 0 0 1 -0.98437,0.27344 5.1195498,5.1195498 0 0 1 -0.86914,0.0742 5.1195498,5.1195498 0 0 1 -0.51172,-0.0254 5.1195498,5.1195498 0 0 1 -2.37891,-0.86914 5.1195498,5.1195498 0 0 1 -0.78125,-0.6582 5.1195498,5.1195498 0 0 1 -0.63672,-0.80078 5.1195498,5.1195498 0 0 1 -0.46289,-0.91211 5.1195498,5.1195498 0 0 1 -0.16211,-0.48437 5.1195498,5.1195498 0 0 1 -0.11133,-0.5 5.1195498,5.1195498 0 0 1 -0.0742,-0.86915 5.1195498,5.1195498 0 0 1 0.0254,-0.51171 5.1195498,5.1195498 0 0 1 0.20312,-1.00196 5.1195498,5.1195498 0 0 1 1.32422,-2.1582 5.1195498,5.1195498 0 0 1 2.69727,-1.37305 5.1195498,5.1195498 0 0 1 0.86914,-0.0742 z"
     style="opacity:1;fill:none;fill-opacity:1;stroke:#000000;stroke-width:1.17954969;stroke-linecap:butt;stroke-linejoin:round;stroke-miterlimit:4;stroke-dasharray:none;stroke-opacity:1"
     id="rect11810-8-9" />
</svg>
